<svg xmlns="http://www.w3.org/2000/svg" xmlns:xlink="http://www.w3.org/1999/xlink" version="1.1" id="Layer_1" x="0px" y="0px" style="enable-background:new 0 0 283.5 283.5;" xml:space="preserve" viewBox="68.34 70.49 146.8 142.32">
<style type="text/css">

		.st0{clip-path:url(#SVGID_00000066503394940644011170000000483278103143281796_);fill:none;stroke:#000000;stroke-width:2;stroke-miterlimit:10;}
	.st1{clip-path:url(#SVGID_00000066503394940644011170000000483278103143281796_);fill:#13566A;}
	.st2{fill:none;stroke:#000000;stroke-width:0.5;}
	.st3{clip-path:url(#SVGID_00000093896126239387091600000000299895682593947807_);fill:none;stroke:#000000;stroke-width:0.5;}
	.st4{clip-path:url(#SVGID_00000026127313198609701190000002983080463312031128_);fill:none;stroke:#000000;stroke-width:0.5;}
</style>
<g>
	<path d="M95.1,110.8l0,8.1l4.5,0l0,0.7l-5.2,0l0-8.7H95.1z"/>
	<path d="M102.3,111.1l0,1.1l-1.1,0l0-1.1L102.3,111.1z M102.1,113.5l0,6h-0.7l0-6H102.1z"/>
	<path d="M108.5,114.8l-0.7,0.3c-0.2-0.7-0.7-1.1-1.5-1.1c-0.5,0-0.8,0.1-1,0.3c-0.2,0.2-0.3,0.4-0.3,0.7c0,0.3,0.1,0.6,0.3,0.7   c0.2,0.1,0.5,0.3,1,0.4l0.5,0.1c0.7,0.2,1.3,0.4,1.5,0.7c0.3,0.3,0.4,0.6,0.4,1.1c0,0.6-0.2,1-0.6,1.3c-0.4,0.3-0.9,0.5-1.6,0.5   c-1.2,0-2-0.5-2.4-1.5l0.7-0.3c0.3,0.8,0.8,1.1,1.7,1.1c0.6,0,1-0.1,1.2-0.4c0.2-0.2,0.3-0.4,0.3-0.7c0-0.4-0.1-0.6-0.3-0.8   c-0.2-0.2-0.6-0.3-1.1-0.4l-0.5-0.1c-0.7-0.2-1.2-0.4-1.5-0.7c-0.2-0.2-0.3-0.6-0.3-1c0-0.5,0.2-0.9,0.6-1.2   c0.4-0.3,0.9-0.4,1.5-0.4C107.4,113.4,108.1,113.9,108.5,114.8z"/>
	<path d="M111.7,111.4l0,2.2l1.5,0l0,0.6l-1.5,0l0,3.9c0,0.7,0.3,1.1,0.9,1.1c0.3,0,0.5,0,0.8-0.1l-0.1,0.6c-0.2,0-0.5,0.1-0.8,0.1   c-1,0-1.5-0.5-1.5-1.5l0-4l-1,0l0-0.6l1,0l0-2L111.7,111.4z"/>
	<path d="M119.5,116.6l-4.4,0c0,0.8,0.2,1.5,0.6,1.9c0.3,0.4,0.8,0.6,1.3,0.6c0.9,0,1.4-0.4,1.7-1.3l0.7,0.3   c-0.4,1.1-1.2,1.6-2.4,1.6c-0.8,0-1.5-0.3-2-1c-0.4-0.6-0.6-1.3-0.6-2.2c0-1,0.3-1.8,0.8-2.4c0.5-0.5,1-0.8,1.7-0.7   c0.8,0,1.4,0.3,1.9,0.9c0.4,0.5,0.6,1.2,0.6,2.1L119.5,116.6z M118.8,116c-0.1-0.7-0.3-1.2-0.6-1.6c-0.3-0.3-0.7-0.5-1.2-0.5   c-0.5,0-1,0.2-1.3,0.6c-0.3,0.4-0.5,0.8-0.5,1.4L118.8,116z"/>
	<path d="M122.3,113.5l0,1.1c0.7-0.8,1.4-1.3,2.2-1.3c0.5,0,1,0.2,1.3,0.5c0.3,0.3,0.4,0.7,0.4,1.2l0,4.5l-0.8,0l0-4.1   c0-0.9-0.4-1.3-1.1-1.3c-0.7,0-1.4,0.4-2,1.2l0,4.2l-0.7,0l0-6L122.3,113.5z"/>
	<path d="M129.2,113.5l0,1c0.5-0.7,1.1-1.1,1.8-1.1c0.8,0,1.3,0.3,1.8,0.9c0.4,0.6,0.6,1.3,0.6,2.2c0,1-0.3,1.8-0.8,2.4   c-0.4,0.5-1,0.7-1.6,0.7c-0.7,0-1.3-0.4-1.8-1.1l0,3.1l-0.7,0l0-8.2L129.2,113.5z M129.2,115.3l0,2.6c0.4,0.8,1,1.2,1.7,1.2   c0.6,0,1-0.2,1.3-0.7c0.3-0.4,0.5-1,0.5-1.8c0-0.8-0.2-1.5-0.5-1.9c-0.3-0.4-0.7-0.6-1.2-0.6C130.3,114,129.7,114.4,129.2,115.3z"/>
	<path d="M136.2,110.6l0,8.9l-0.7,0l0-8.9L136.2,110.6z"/>
	<path d="M138.4,114.9c0.4-1,1.1-1.5,2.4-1.5c1.4,0,2.1,0.7,2.1,2l0,2.1c0,0.8,0,1.5,0.1,2h-0.7c-0.1-0.2-0.1-0.6-0.1-1.1   c-0.5,0.8-1.3,1.2-2.2,1.2c-0.6,0-1.1-0.2-1.5-0.6c-0.3-0.3-0.4-0.7-0.4-1.2c0-1.1,0.7-1.7,2-2c0.5-0.1,1.2-0.2,2-0.2l0-0.3   c0-0.6-0.1-1-0.4-1.2c-0.2-0.2-0.6-0.3-1-0.3c-0.9,0-1.4,0.4-1.7,1.2L138.4,114.9z M142.2,116.3c-0.6,0-1.2,0.1-1.8,0.2   c-1,0.2-1.4,0.7-1.4,1.4c0,0.4,0.1,0.7,0.4,0.9c0.2,0.2,0.5,0.3,0.9,0.3c0.8,0,1.5-0.4,2-1.3L142.2,116.3z"/>
	<path d="M146.3,111.4l0,2.2l1.5,0l0,0.6l-1.5,0l0,3.9c0,0.7,0.3,1.1,0.9,1.1c0.3,0,0.5,0,0.8-0.1l-0.1,0.6c-0.2,0-0.5,0.1-0.8,0.1   c-1,0-1.5-0.5-1.5-1.5l0-4l-1,0l0-0.6l1,0l0-2L146.3,111.4z"/>
	<path d="M153.2,113.6v0.5l-3.5,4.9l3.5,0v0.6l-4.4,0V119l3.4-4.9l-3.3,0v-0.6L153.2,113.6z"/>
</g>
<g>
	<path d="M95.8,93.5l0,8.1l4.5,0l0,0.7l-5.2,0l0-8.7L95.8,93.5z"/>
	<path d="M102.9,93.9l0,1.1l-1.1,0l0-1.1L102.9,93.9z M102.7,96.3l0,6l-0.7,0l0-6L102.7,96.3z"/>
	<path d="M109.1,97.6l-0.7,0.3c-0.2-0.7-0.7-1.1-1.5-1.1c-0.5,0-0.8,0.1-1,0.3c-0.2,0.2-0.3,0.4-0.3,0.7c0,0.3,0.1,0.6,0.3,0.7   c0.2,0.1,0.5,0.3,1,0.4l0.5,0.1c0.7,0.2,1.3,0.4,1.5,0.7c0.3,0.3,0.4,0.6,0.4,1.1c0,0.6-0.2,1-0.6,1.3c-0.4,0.3-0.9,0.5-1.6,0.5   c-1.2,0-2-0.5-2.4-1.5l0.7-0.3c0.3,0.8,0.8,1.1,1.7,1.1c0.6,0,1-0.1,1.2-0.4c0.2-0.2,0.3-0.4,0.3-0.7c0-0.4-0.1-0.6-0.3-0.8   c-0.2-0.2-0.6-0.3-1.1-0.4l-0.5-0.1c-0.7-0.2-1.2-0.4-1.5-0.7c-0.2-0.2-0.3-0.6-0.3-1c0-0.5,0.2-0.9,0.6-1.2   c0.4-0.3,0.9-0.4,1.5-0.4C108,96.2,108.7,96.6,109.1,97.6z"/>
	<path d="M112.3,94.2l0,2.2l1.5,0v0.6l-1.5,0l0,3.9c0,0.7,0.3,1.1,0.9,1.1c0.3,0,0.5,0,0.8-0.1l-0.1,0.6c-0.2,0-0.5,0.1-0.8,0.1   c-1,0-1.5-0.5-1.5-1.5l0-4l-1,0v-0.6l1,0l0-2L112.3,94.2z"/>
	<path d="M120.2,99.4l-4.4,0c0,0.8,0.2,1.5,0.6,1.9c0.3,0.4,0.8,0.6,1.3,0.6c0.9,0,1.4-0.4,1.7-1.3l0.7,0.3   c-0.4,1.1-1.2,1.6-2.4,1.6c-0.8,0-1.5-0.3-2-1c-0.4-0.6-0.6-1.3-0.6-2.2c0-1,0.3-1.8,0.8-2.4c0.5-0.5,1-0.7,1.7-0.7   c0.8,0,1.4,0.3,1.9,0.9c0.4,0.5,0.6,1.2,0.6,2.1V99.4z M119.4,98.8c-0.1-0.7-0.3-1.2-0.6-1.6c-0.3-0.3-0.7-0.5-1.2-0.5   c-0.5,0-1,0.2-1.3,0.6c-0.3,0.4-0.5,0.8-0.5,1.4L119.4,98.8z"/>
</g>
<g>
	<path d="M125,95.3c0.2-0.7,0.5-1.2,1.1-1.5c0.5-0.3,1-0.4,1.7-0.4c0.9,0,1.6,0.2,2.1,0.7c0.4,0.4,0.7,0.9,0.7,1.6   c0,0.6-0.2,1.1-0.5,1.4c-0.3,0.3-0.7,0.5-1.2,0.6v0.1c0.7,0.1,1.2,0.4,1.5,0.9c0.3,0.4,0.4,0.9,0.4,1.4c0,0.9-0.3,1.6-0.9,2.1   c-0.5,0.4-1.2,0.7-2,0.7c-1.6,0-2.5-0.7-2.9-2l1.5-0.4c0.1,0.5,0.3,0.8,0.5,1c0.2,0.2,0.5,0.3,0.9,0.3c0.5,0,0.8-0.2,1.1-0.5   c0.2-0.3,0.3-0.6,0.3-1.1c0-1.1-0.6-1.7-1.8-1.7l-0.7,0l0-1.2l0.6,0c1.1,0,1.7-0.5,1.7-1.4c0-0.4-0.1-0.8-0.4-1   c-0.2-0.2-0.5-0.3-0.9-0.3c-0.4,0-0.6,0.1-0.9,0.4c-0.2,0.2-0.3,0.5-0.4,0.9L125,95.3z"/>
</g>
<g>
	<path d="M160.1,109.7c0.2-1.3,0.7-2.3,1.5-2.9c0.7-0.6,1.6-0.9,2.7-0.9c1.3,0,2.4,0.4,3.1,1.1c0.7,0.7,1,1.5,1,2.6   c0,0.8-0.2,1.6-0.7,2.3c-0.4,0.6-1.1,1.4-2.1,2.3c-1.7,1.6-2.9,2.8-3.4,3.8l6.2,0l0,1.8l-8.5,0l0-1.6c0.8-1.6,2.1-3.3,3.9-5.1   c0.9-0.9,1.6-1.6,1.8-2.1c0.2-0.4,0.4-0.9,0.4-1.5c0-0.6-0.2-1.1-0.6-1.5c-0.3-0.3-0.7-0.4-1.2-0.4c-1.2,0-1.8,0.8-2,2.5   L160.1,109.7z"/>
	<path d="M178.2,106.1l0,1.8l-5.4,0l-0.1,2.8c0,0.5-0.1,0.9-0.1,1.3c0.5-0.8,1.3-1.2,2.4-1.2c1.2,0,2.2,0.5,2.9,1.4   c0.6,0.8,0.9,1.9,0.9,3.1c0,1.5-0.5,2.8-1.4,3.7c-0.8,0.8-1.8,1.2-3,1.1c-1.2,0-2.1-0.3-2.9-0.8c-0.7-0.5-1.1-1.2-1.3-2.1l2.2-0.7   c0.2,1.3,0.9,1.9,2,1.9c0.7,0,1.2-0.3,1.6-0.9c0.3-0.5,0.5-1.2,0.5-2.1c0-0.9-0.2-1.7-0.6-2.2c-0.3-0.4-0.8-0.6-1.4-0.6   c-1,0-1.6,0.5-1.9,1.5l-1.9-0.3l0.3-7.7L178.2,106.1z"/>
</g>
<g>
	<defs>

			<rect id="SVGID_1_" x="76" y="78.5" transform="matrix(0.9915 -0.13 0.13 0.9915 -17.2142 19.6283)" width="131.5" height="126.3"/>
	</defs>
	<clipPath id="SVGID_00000102507790357695159180000005342317494566104997_">
		<use xlink:href="#SVGID_1_" style="overflow:visible;"/>
	</clipPath>

		<path style="clip-path:url(#SVGID_00000102507790357695159180000005342317494566104997_);fill:none;stroke:#000000;stroke-width:2;stroke-miterlimit:10;" d="   M149.8,143.5c0,5.7-4.6,10.3-10.3,10.3c-5.7,0-10.3-4.6-10.3-10.3c0-5.7,4.6-10.3,10.3-10.3C145.2,133.2,149.8,137.9,149.8,143.5z"/>
	<path style="clip-path:url(#SVGID_00000102507790357695159180000005342317494566104997_);fill:#13566A;" d="M129.5,132.4   c0.8-0.5,0.9-0.5,1-0.3l0.4,0.3c1.3,1.2,3.7,3.5,5,4.7c3.7,3.5,7.6,7.4,11,11.1c1.3,1.4,2.7,2.9,4,4.3c0,0,0.7,0.7,0.7,0.7   c0.1,0.1,0.1,0.3,0.1,0.6c-0.1,0.3-0.3,1-0.7,1.4c-0.6,0.3-0.9,0.4-1.2,0.5c-0.3,0-0.5,0-0.6-0.1l-0.7-0.7   c-6-5.9-11.8-12.3-17.2-18.7c-0.4-0.5-1.5-1.8-1.9-2.2l-0.3-0.4c-0.1-0.1-0.2-0.3,0.4-1L129.5,132.4z"/>
	<path style="clip-path:url(#SVGID_00000102507790357695159180000005342317494566104997_);fill:#13566A;" d="M152.1,132.7   c0.4,0.7,0.8,1.6,0.7,2.4c0,0.4-0.4,0.6-0.6,0.9c-4.6,4.3-9.6,8.3-14.6,12.1c-1.7,1.3-5.1,3.8-6.8,5l-1.7,1.3l-0.8,0.6   c-0.1,0.1-0.3,0.2-0.4,0.3c-0.2,0.1-0.4,0.1-0.8-0.2l-0.2-0.2c-0.3-0.8-0.1-0.8,0.3-1.2l0.7-0.8l1.4-1.5c2.6-2.7,6.1-6.5,8.7-9.2   c3.4-3.5,7-6.9,10.7-10.1l0.4-0.3c0.5-0.4,1.1-0.1,1.7,0.1c0.4,0.2,0.7,0.4,1.1,0.7L152.1,132.7z"/>

		<path style="clip-path:url(#SVGID_00000102507790357695159180000005342317494566104997_);fill:none;stroke:#000000;stroke-width:2;stroke-miterlimit:10;" d="   M116.5,143.5c0,5.7-4.6,10.3-10.3,10.3c-5.7,0-10.3-4.6-10.3-10.3c0-5.7,4.6-10.3,10.3-10.3C111.9,133.2,116.5,137.8,116.5,143.5z"/>
	<path style="clip-path:url(#SVGID_00000102507790357695159180000005342317494566104997_);fill:#13566A;" d="M96.2,132.4   c0.8-0.5,0.9-0.5,1-0.3l0.4,0.3c1.3,1.2,3.7,3.5,5,4.7c3.7,3.5,7.6,7.4,11,11.1c1.3,1.4,2.7,2.9,4,4.3c0,0,0.7,0.7,0.7,0.7   c0.1,0.1,0.1,0.3,0.1,0.6c-0.1,0.3-0.3,1-0.7,1.4c-0.6,0.3-0.9,0.4-1.2,0.5c-0.3,0-0.5,0-0.6-0.1l-0.7-0.7   c-6-5.9-11.8-12.3-17.2-18.7c-0.4-0.5-1.5-1.8-1.9-2.2l-0.3-0.4c-0.1-0.1-0.2-0.3,0.4-1L96.2,132.4z"/>
	<path style="clip-path:url(#SVGID_00000102507790357695159180000005342317494566104997_);fill:#13566A;" d="M118.8,132.7   c0.4,0.7,0.8,1.6,0.7,2.4c0,0.4-0.4,0.6-0.6,0.9c-4.6,4.3-9.6,8.3-14.6,12.1c-1.7,1.3-5.1,3.8-6.8,5l-1.7,1.3L95,155   c-0.1,0.1-0.3,0.2-0.4,0.3c-0.2,0.1-0.4,0.1-0.8-0.2l-0.2-0.2c-0.3-0.8-0.1-0.8,0.3-1.2l0.7-0.8l1.4-1.5c2.6-2.7,6.1-6.5,8.7-9.2   c3.4-3.5,7-6.9,10.7-10.1l0.4-0.3c0.5-0.4,1.1-0.1,1.7,0.1c0.4,0.2,0.7,0.4,1.1,0.7L118.8,132.7z"/>

		<path style="clip-path:url(#SVGID_00000102507790357695159180000005342317494566104997_);fill:none;stroke:#000000;stroke-width:2;stroke-miterlimit:10;" d="   M183.2,143.6c0,5.7-4.6,10.3-10.3,10.3c-5.7,0-10.3-4.6-10.3-10.3c0-5.7,4.6-10.3,10.3-10.3C178.6,133.3,183.2,137.9,183.2,143.6z"/>
	<path style="clip-path:url(#SVGID_00000102507790357695159180000005342317494566104997_);fill:#13566A;" d="M163,132.5   c0.8-0.5,0.9-0.5,1-0.3l0.4,0.3c1.3,1.2,3.7,3.5,5,4.7c3.7,3.5,7.6,7.4,11,11.1c1.3,1.4,2.7,2.9,4,4.3c0,0,0.7,0.7,0.7,0.7   c0.1,0.1,0.1,0.3,0.1,0.6c-0.1,0.3-0.3,1-0.7,1.4c-0.6,0.3-0.9,0.4-1.2,0.5c-0.3,0-0.5,0-0.6-0.1l-0.7-0.7   c-6-5.9-11.8-12.3-17.2-18.7c-0.4-0.5-1.5-1.8-1.9-2.2l-0.3-0.4c-0.1-0.1-0.2-0.3,0.4-1L163,132.5z"/>
	<path style="clip-path:url(#SVGID_00000102507790357695159180000005342317494566104997_);fill:#13566A;" d="M185.6,132.8   c0.4,0.7,0.8,1.6,0.7,2.4c0,0.4-0.4,0.6-0.6,0.9c-4.6,4.3-9.6,8.3-14.6,12.1c-1.7,1.3-5.1,3.8-6.8,5l-1.7,1.3l-0.8,0.6   c-0.1,0.1-0.3,0.2-0.4,0.3c-0.2,0.1-0.4,0.1-0.8-0.2l-0.2-0.2c-0.3-0.8-0.1-0.8,0.3-1.2l0.7-0.8l1.4-1.5c2.6-2.7,6.1-6.5,8.7-9.2   c3.4-3.5,7-6.9,10.7-10.1l0.4-0.3c0.5-0.4,1.1-0.1,1.7,0.1c0.4,0.2,0.7,0.4,1.1,0.7L185.6,132.8z"/>
</g>
<line class="st2" x1="78.1" y1="125.6" x2="190.3" y2="125.7"/>
<g>
	<defs>

			<rect id="SVGID_00000032630474575313727040000005757309612172626623_" x="76" y="78.5" transform="matrix(0.9915 -0.13 0.13 0.9915 -17.2142 19.6283)" width="131.5" height="126.3"/>
	</defs>
	<clipPath id="SVGID_00000076590709917442702730000001631252911521708419_">
		<use xlink:href="#SVGID_00000032630474575313727040000005757309612172626623_" style="overflow:visible;"/>
	</clipPath>

		<line style="clip-path:url(#SVGID_00000076590709917442702730000001631252911521708419_);fill:none;stroke:#000000;stroke-width:0.5;" x1="78.1" y1="161.5" x2="190.3" y2="161.6"/>
</g>
<line class="st2" x1="156.5" y1="125.9" x2="156.4" y2="199"/>
<g>
	<defs>

			<rect id="SVGID_00000103968306989221470440000002885227382051002557_" x="76" y="78.5" transform="matrix(0.9915 -0.13 0.13 0.9915 -17.2142 19.6283)" width="131.5" height="126.3"/>
	</defs>
	<clipPath id="SVGID_00000049928479671797474080000014468191000611513021_">
		<use xlink:href="#SVGID_00000103968306989221470440000002885227382051002557_" style="overflow:visible;"/>
	</clipPath>

		<line style="clip-path:url(#SVGID_00000049928479671797474080000014468191000611513021_);fill:none;stroke:#000000;stroke-width:0.5;" x1="190.1" y1="125.9" x2="190" y2="199"/>
</g>
<line class="st2" x1="123.1" y1="125.9" x2="123.1" y2="199"/>
<line class="st2" x1="89.8" y1="125.9" x2="89.8" y2="199"/>
</svg>